<?xml version="1.0" encoding="utf-8"?>
<!-- Generator: Adobe Illustrator 26.0.1, SVG Export Plug-In . SVG Version: 6.00 Build 0)  -->
<svg version="1.1" id="Layer_1" xmlns="http://www.w3.org/2000/svg" xmlns:xlink="http://www.w3.org/1999/xlink" x="0px" y="0px"
	 viewBox="0 0 131.2 35.9" style="enable-background:new 0 0 131.2 35.9;" xml:space="preserve">
<style type="text/css">
	.st0{fill:#36499B;}
	.st1{fill:#0081C3;}
	.st2{fill:#67CFEE;}
	.st3{fill:#9D7AD1;}
	.st4{fill:#FF5892;}
	.st5{fill:#E470C0;}
</style>
<g>
	<g>
		<g>
			<path class="st0" d="M40.2,16.7c0-3.2,2.4-5.6,5.6-5.6s5.6,2.3,5.6,5.6c0,3.2-2.4,5.6-5.6,5.6C42.5,22.3,40.2,19.9,40.2,16.7z
				 M49,16.7c0-2-1.3-3.5-3.3-3.5c-2,0-3.2,1.5-3.2,3.5s1.3,3.5,3.2,3.5C47.8,20.1,49,18.7,49,16.7z"/>
			<path class="st0" d="M54.8,21.1v4h-2V14.3h2v0.9c0.5-0.8,1.5-1.2,2.4-1.2c2,0,3.5,1.5,3.5,4.1c0,2.5-1.5,4.1-3.5,4.1
				C56.3,22.3,55.5,21.9,54.8,21.1z M58.5,18.1c0-1.3-0.8-2.3-2-2.3c-0.7,0-1.5,0.4-1.7,0.9v2.8c0.4,0.5,1.1,0.9,1.7,0.9
				C57.7,20.4,58.5,19.5,58.5,18.1z"/>
			<path class="st0" d="M61.5,18.1c0-2.3,1.6-4.1,4-4.1c2.3,0,3.9,1.7,3.9,4.3v0.4h-5.8c0.1,0.9,0.9,1.9,2.3,1.9
				c0.7,0,1.6-0.3,2.1-0.8l0.9,1.3c-0.8,0.7-2,1.1-3.2,1.1C63.3,22.3,61.5,20.7,61.5,18.1z M65.6,15.7c-1.3,0-1.9,0.9-1.9,1.7h3.9
				C67.5,16.7,67,15.7,65.6,15.7z"/>
			<path class="st0" d="M76.1,22v-4.7c0-1.1-0.5-1.5-1.5-1.5c-0.8,0-1.5,0.4-1.7,0.9V22h-2v-7.8h2v1.1c0.5-0.5,1.5-1.2,2.7-1.2
				c1.7,0,2.5,0.9,2.5,2.5v5.5h-2V22z"/>
			<path class="st0" d="M84.1,22V11.3h4.3c3.3,0,5.8,2.1,5.8,5.4S91.7,22,88.4,22H84.1z M91.7,16.7c0-1.9-1.2-3.3-3.3-3.3h-2V20h2
				C90.4,20,91.7,18.5,91.7,16.7z"/>
			<path class="st0" d="M95.2,12.1c0-0.7,0.5-1.2,1.2-1.2c0.7,0,1.2,0.5,1.2,1.2c0,0.7-0.5,1.2-1.2,1.2
				C95.7,13.5,95.2,12.8,95.2,12.1z M95.3,22v-7.8h2.1V22H95.3z"/>
			<path class="st0" d="M98.5,21.1l0.9-1.5c0.5,0.5,1.7,1.1,2.7,1.1s1.3-0.4,1.3-0.8c0-1.3-4.7-0.3-4.7-3.3c0-1.3,1.2-2.4,3.2-2.4
				c1.3,0,2.4,0.4,3.2,1.1l-0.8,1.3c-0.5-0.5-1.3-0.9-2.3-0.9c-0.8,0-1.2,0.4-1.2,0.8c0,1.2,4.7,0.1,4.7,3.3c0,1.5-1.2,2.5-3.3,2.5
				C100.7,22.3,99.5,21.7,98.5,21.1z"/>
			<path class="st0" d="M107.4,20.1v-4H106v-1.9h1.3v-2.1h2v2.1h1.6V16h-1.6v3.5c0,0.5,0.3,0.8,0.7,0.8c0.3,0,0.5-0.1,0.7-0.3
				l0.4,1.6c-0.3,0.3-0.8,0.5-1.7,0.5C108,22.3,107.4,21.5,107.4,20.1z"/>
			<path class="st0" d="M112.3,22v-7.8h2v1.1c0.5-0.7,1.5-1.2,2.5-1.2v2c-0.1,0-0.4,0-0.5,0c-0.7,0-1.6,0.4-1.9,0.9v5.2h-2.1V22z"/>
			<path class="st0" d="M117.4,18.1c0-2.3,1.6-4.1,4.1-4.1s4.1,1.9,4.1,4.1s-1.6,4.1-4.1,4.1C118.9,22.3,117.4,20.4,117.4,18.1z
				 M123.4,18.1c0-1.2-0.7-2.3-2-2.3s-2,1.1-2,2.3c0,1.2,0.7,2.3,2,2.3S123.4,19.3,123.4,18.1z"/>
		</g>
	</g>
</g>
<g>
	<g>
		<path class="st0" d="M21.1,26c4.1-0.4,7.3-3.9,7.3-8.1s-3.2-7.7-7.3-8.1V4.9c6.8,0.4,12.3,6.1,12.3,13s-5.4,12.6-12.3,13
			C21.1,30.9,21.1,26,21.1,26z"/>
	</g>
	<circle class="st1" cx="17" cy="28" r="2.4"/>
	<circle class="st2" cx="11.7" cy="24.1" r="2.4"/>
	<circle class="st3" cx="9.7" cy="18" r="2.4"/>
	<circle class="st4" cx="11.7" cy="11.8" r="2.4"/>
	<circle class="st5" cx="17" cy="7.8" r="2.4"/>
</g>
</svg>
